<?xml version="1.0" encoding="UTF-8" standalone="no"?><!DOCTYPE svg PUBLIC "-//W3C//DTD SVG 1.1//EN" "http://www.w3.org/Graphics/SVG/1.1/DTD/svg11.dtd"><svg width="100%" height="100%" viewBox="0 0 2084 2084" version="1.1" xmlns="http://www.w3.org/2000/svg" xmlns:xlink="http://www.w3.org/1999/xlink" xml:space="preserve" xmlns:serif="http://www.serif.com/" style="fill-rule:evenodd;clip-rule:evenodd;stroke-linejoin:round;stroke-miterlimit:2;"><g id="OBJECTS"><path d="M1410.32,1575.46c-0,30.888 -130.763,55.93 -292.063,55.93c-161.3,-0 -292.062,-25.042 -292.062,-55.93c-0,-30.891 130.762,-55.929 292.062,-55.929c161.3,0 292.063,25.038 292.063,55.929" style="fill:#a1a1a1;fill-rule:nonzero;"/><path d="M979.794,1518.27c-0,48.533 -115.896,87.875 -258.859,87.875c-142.966,0 -258.858,-39.342 -258.858,-87.875c0,-48.533 115.892,-87.875 258.858,-87.875c142.963,0 258.859,39.342 258.859,87.875" style="fill:#a1a1a1;fill-rule:nonzero;"/><path d="M1662.29,1581.77c0,49.113 -112.808,88.925 -251.967,88.925c-139.158,0 -251.966,-39.812 -251.966,-88.925c-0,-49.112 112.808,-88.925 251.966,-88.925c139.159,0 251.967,39.813 251.967,88.925" style="fill:#a1a1a1;fill-rule:nonzero;"/><path d="M1181.18,929.17c-16.992,4.188 -44.167,-3.437 -61.742,-4.779c-41.079,-3.133 -82.333,-5.721 -123.541,-3.483c-31.434,1.704 -62.238,7.879 -93.838,7.225c-16.042,-0.338 -40.117,1.217 -55.083,-4.767c-14.621,-5.854 -25.967,-31.725 -34.1,-44.712c-34.625,-55.288 -65.221,-113.054 -96.629,-170.196c-13.425,-24.429 -49.367,-69.263 -39.796,-97.925c4.366,-13.063 17.141,-28.042 24.346,-39.829l29.208,-47.796c17.042,-27.879 34.079,-55.758 51.121,-83.638c18.025,-29.5 34.2,-64.745 55.987,-91.608c18.254,-22.504 58.021,-15.054 85.134,-14.412c34.683,0.829 69.304,3.191 103.995,3.825c31.875,0.579 63.771,0.237 95.63,-1.038c15.166,-0.604 30.32,-1.496 45.487,-2.079c7.983,-0.308 18.888,-2.754 26.046,2.108c4.954,3.363 11.737,16.371 15.154,21.292c36.346,52.396 69.713,107.121 99.204,163.662c8.05,15.438 15.859,31.005 23.421,46.688c7.7,15.962 20.996,36.546 24.258,53.875c3.546,18.846 -7.891,33.854 -16.637,50.35c-8.583,16.179 -17.254,32.312 -26.008,48.404c-22.492,41.321 -46.98,81.5 -70.417,122.279c-10.096,17.567 -20.404,34.921 -31.3,51.638c-7.8,11.962 -14.35,31.083 -29.9,34.916" style="fill:#4b8dff;fill-rule:nonzero;"/><path d="M741.88,596.618c7.267,-13.704 14.613,-27.371 22.03,-40.996c19.045,-34.996 39.787,-69.029 59.637,-103.567c8.55,-14.879 17.279,-29.575 26.508,-43.733c6.609,-10.129 12.155,-26.325 25.325,-29.571c14.392,-3.55 37.409,2.909 52.292,4.046c34.792,2.654 69.729,4.846 104.633,2.95c26.621,-1.446 52.713,-6.675 79.475,-6.117c13.588,0.284 33.975,-1.033 46.65,4.038c12.388,4.954 21.996,26.867 28.884,37.867c29.325,46.825 55.241,95.75 81.841,144.145c11.371,20.688 41.813,58.663 33.7,82.938c-3.695,11.062 -14.516,23.754 -20.616,33.733l-24.738,40.479c-14.433,23.613 -28.862,47.225 -43.296,70.842c-15.266,24.979 -28.966,54.833 -47.416,77.583c-15.463,19.063 -49.142,12.755 -72.109,12.205c-29.37,-0.7 -58.691,-2.7 -88.075,-3.234c-27,-0.491 -54.012,-0.204 -80.995,0.875c-12.846,0.513 -25.68,1.267 -38.525,1.763c-6.763,0.258 -15.996,2.333 -22.059,-1.784c-4.196,-2.85 -9.941,-13.87 -12.833,-18.037c-30.783,-44.375 -59.046,-90.721 -84.021,-138.613c-6.821,-13.075 -13.433,-26.258 -19.837,-39.537c-6.521,-13.521 -17.784,-30.954 -20.546,-45.633c-3.004,-15.959 6.683,-28.671 14.091,-42.642" style="fill:#dfd1cf;fill-rule:nonzero;"/><path d="M741.88,596.618c7.267,-13.704 14.613,-27.371 22.03,-40.996c19.045,-34.996 39.787,-69.029 59.637,-103.567c8.55,-14.879 17.279,-29.575 26.508,-43.733c6.609,-10.129 12.155,-26.325 25.325,-29.571c14.392,-3.55 37.409,2.909 52.292,4.046c34.792,2.654 69.729,4.846 104.633,2.95c26.621,-1.446 52.713,-6.675 79.475,-6.117c13.588,0.284 33.975,-1.033 46.65,4.038c12.388,4.954 21.996,26.867 28.884,37.867c29.325,46.825 55.241,95.75 81.841,144.145c11.371,20.688 41.813,58.663 33.7,82.938c-3.695,11.062 -14.516,23.754 -20.616,33.733l-24.738,40.479c-14.433,23.613 -28.862,47.225 -43.296,70.842c-15.266,24.979 -28.966,54.833 -47.416,77.583c-15.463,19.063 -49.142,12.755 -72.109,12.205c-29.37,-0.7 -58.691,-2.7 -88.075,-3.234c-27,-0.491 -54.012,-0.204 -80.995,0.875c-12.846,0.513 -25.68,1.267 -38.525,1.763c-6.763,0.258 -15.996,2.333 -22.059,-1.784c-4.196,-2.85 -9.941,-13.87 -12.833,-18.037c-30.783,-44.375 -59.046,-90.721 -84.021,-138.613c-6.821,-13.075 -13.433,-26.258 -19.837,-39.537c-6.521,-13.521 -17.784,-30.954 -20.546,-45.633c-3.004,-15.959 6.683,-28.671 14.091,-42.642m-25.516,47.458c6.575,15.742 14.762,31.159 22.291,46.471c27.08,55.083 57.459,108.704 91.096,160.05c8.071,12.317 16.217,24.625 24.679,36.675c6.363,9.054 6.067,9.2 17.263,8.5c33.475,-2.087 66.587,-4.379 100.196,-4.312c30.791,0.058 61.5,1.466 92.241,3.091c15.263,0.809 30.534,1.6 45.817,1.788c7.625,0.091 15.25,0.071 22.867,-0.171c8.087,-0.258 23.087,1.421 30.391,-2.229c6.338,-3.163 4.48,-1.638 9.275,-10.2c7.725,-13.804 16.017,-27.246 24.28,-40.746c17.883,-29.229 35.762,-58.458 53.645,-87.683c16.505,-26.98 33.013,-53.959 49.517,-80.938c5.671,-9.267 14.917,-19.779 17.458,-30.633c2.446,-10.442 -2.725,-18.275 -7.533,-27.254c-30.071,-56.196 -60.692,-112.38 -92.854,-167.4c-9.133,-15.625 -18.65,-30.996 -28.258,-46.33c-5.775,-9.225 -11.425,-23.566 -21.409,-29.295c-9.587,-5.505 -25.037,-3.567 -35.496,-4.175c-18.412,-1.071 -36.508,-1.363 -54.887,0.433c-71.642,6.996 -141.721,1.012 -213.413,-3.788c-8.716,-0.566 -19.85,21.346 -23.108,27.567c-8.471,16.179 -17.037,31.808 -26.537,47.675c-21.25,35.488 -40.459,72.133 -60.392,108.363c-7.475,13.591 -14.879,27.22 -22.208,40.891c-5.463,10.192 -14.367,21.859 -17.317,33.067c-2.121,8.067 -0.717,13.125 2.396,20.583" style="fill:#5a5a5a;fill-rule:nonzero;"/><g transform="matrix(260.198,0,0,260.198,1211.95,668.398)"></g><text x="807.043px" y="668.398px" style="font-family:'Helvetica';font-size:260.198px;fill:#5a5a5a;">4<tspan x="937.143px 1067.24px " y="668.398px 668.398px ">03</tspan></text><g transform="matrix(117.105,0,0,117.105,1124.44,801.566)"></g><text x="881.218px" y="801.566px" style="font-family:'Helvetica';font-size:117.105px;fill:#5a5a5a;">E<tspan x="955.075px 989.822px 1024.57px 1085.44px " y="801.566px 801.566px 801.566px 801.566px ">rror</tspan></text><path d="M1382.62,586.177c-0.246,0.45 -0.525,0.862 -0.684,1.42c-3.045,10.784 -8.204,20.171 -12.462,30.342c-0.267,-0.675 -0.525,-1.337 -0.821,-2.046c-7.762,-18.583 -17.429,-36.787 -26.317,-54.866c-31.975,-65.038 -67.841,-128.35 -107.562,-188.971c-9.529,-14.542 -19.146,-29.075 -29.138,-43.304c-3.725,-5.305 -5.516,-8.013 -7.991,-9.3c-0.904,-0.471 6.633,-14.946 7.233,-16.146c4.621,-9.242 9.692,-16.708 16.617,-24.254c3.271,-3.563 13.866,21.404 14.808,22.904c4.113,6.542 8.158,13.125 12.15,19.742c7.988,13.262 15.738,26.662 23.288,40.179c15.141,27.1 29.475,54.646 43.32,82.425c11.78,23.625 23.205,47.425 34.484,71.291c5.558,11.767 11.083,23.546 16.596,35.334c2.75,5.879 5.5,11.762 8.245,17.641c1.071,2.292 9.234,15.805 8.234,17.609m-85.4,206.158c-17.734,34.85 -35.804,70.442 -59.529,101.488c-4.509,4.887 -9.067,9.725 -13.692,14.495c9.417,-17.879 18.975,-35.25 29.512,-52.85c25.088,-41.9 47.767,-85.17 71.3,-127.945c8.83,-16.046 17.571,-32.138 26.225,-48.28c5.6,-10.45 14.255,-22.212 18.717,-33.795c1.471,-0.005 2.888,-0.53 4.033,-1.646c-24.487,49.991 -51.395,99.066 -76.566,148.533m-116.317,136.833c-16.996,4.192 -44.171,-3.437 -61.746,-4.775c-41.079,-3.137 -82.329,-5.725 -123.541,-3.487c-31.43,1.708 -62.234,7.883 -93.838,7.225c-16.037,-0.333 -40.117,1.221 -55.079,-4.767c-14.625,-5.85 -25.967,-31.725 -34.1,-44.708c-34.625,-55.288 -65.225,-113.054 -96.629,-170.196c-13.429,-24.429 -49.371,-69.267 -39.796,-97.929c4.362,-13.058 17.137,-28.042 24.342,-39.825l29.212,-47.796c17.038,-27.879 34.079,-55.762 51.117,-83.642c18.029,-29.495 34.2,-64.745 55.987,-91.604c18.254,-22.508 58.025,-15.058 85.138,-14.412c34.679,0.825 69.3,3.191 103.991,3.821c31.88,0.579 63.771,0.237 95.63,-1.034c15.17,-0.608 30.325,-1.5 45.491,-2.083c7.984,-0.304 18.888,-2.754 26.046,2.108c4.95,3.363 11.738,16.375 15.15,21.296c36.346,52.396 69.717,107.117 99.204,163.658c8.05,15.442 15.863,31.005 23.425,46.688c7.696,15.962 20.996,36.546 24.259,53.875c3.545,18.846 -7.892,33.854 -16.642,50.35c-8.579,16.183 -17.25,32.317 -26.008,48.404c-22.488,41.321 -46.975,81.504 -70.417,122.283c-10.096,17.567 -20.4,34.917 -31.3,51.634c-7.8,11.962 -14.346,31.087 -29.896,34.916m-130.854,642.175c-0.033,0.042 -0.067,0.084 -0.1,0.13c-4.771,5.887 -11.033,9.566 -18.692,9.379c-31.312,-0.771 -25.275,-45.205 -25.879,-65.746c-0.825,-28.234 -1.3,-56.471 -1.617,-84.713c-0.633,-56.47 -0.633,-112.954 -1.575,-169.42c-0.704,-42.426 -1.375,-84.846 -2.108,-127.267c-0.575,-33.142 -1.187,-66.279 -1.887,-99.417c-0.35,-16.571 -0.721,-33.141 -1.121,-49.708c-0.188,-7.85 -1.025,-15.992 -0.379,-23.821c0.508,-6.208 -0.367,-12.542 0.987,-18.7c1.375,-6.267 3.592,-5.542 9.446,-5.658c12.575,-0.254 25.154,-0.329 37.729,-0.125c-4.279,50.375 1.967,103.321 3.338,153.637c1.466,53.9 2.82,107.808 3.841,161.721c1.213,64.179 2,128.367 2.4,192.554c0.2,31.763 0.313,63.529 0.317,95.296c0.004,11.583 3.05,22.167 -4.7,31.858m-170.225,-1273.78c17.867,-12.163 38.717,-10.225 59.212,-10.779c30.234,-0.821 60.471,-1.642 90.705,-2.463c58.02,-1.575 116.075,-2.612 174.083,-4.146c-7.775,12.38 -14.933,25 -20.408,38.659c-38.9,2.429 -77.396,5.058 -116.467,4.979c-36.354,-0.071 -72.613,-1.733 -108.904,-3.654c-18.025,-0.954 -36.054,-1.888 -54.1,-2.108c-9,-0.109 -18.004,-0.088 -27,0.2c-4.663,0.15 -11.267,-0.238 -17.809,-0.184c6.505,-7.441 13.342,-15.5 20.688,-20.504m521.717,300.342c-0.492,-5.321 -1.642,-10.679 -3.584,-16.075c-17.037,-47.359 -45.062,-90.421 -67.762,-135.175c-16.779,-33.071 -34.388,-65.713 -52.054,-98.317c-8.825,-16.292 -17.996,-32.454 -26.45,-48.946c-6.184,-12.054 -11.642,-26.516 -24.859,-32.521c-9.383,-4.262 -19.841,-1.925 -29.675,-1.066c-27.196,2.375 -54.341,3.062 -81.612,4.071c-38.146,1.225 -76.296,2.47 -114.446,3.525c-27.513,0.762 -55.058,-0.163 -82.554,1.22c-20.542,1.034 -39.579,-0.937 -55.75,14.267c-9.642,9.058 -17.35,20.038 -24.575,31.05c-0.859,1.229 -1.663,2.492 -2.459,3.763c-1.645,1.27 -2.141,2.958 -5.65,9.225c-9.125,16.295 -18.912,32.166 -28.666,48.112c-21.113,34.508 -42.225,69.017 -63.338,103.525c-19.491,31.854 -38.979,63.708 -58.466,95.563c-6.7,10.945 -17.617,23.354 -20.617,36.17c-2.888,12.33 3.221,21.575 8.896,32.184c35.504,66.35 71.658,132.683 109.637,197.65c10.784,18.446 22.017,36.596 33.359,54.7c6.825,10.891 13.491,27.825 25.279,34.591c11.321,6.5 29.566,4.209 41.912,4.925c21.738,1.267 43.104,1.609 64.804,-0.508c5.859,-0.571 11.725,-1.046 17.596,-1.454c5.109,-0.354 12.604,-2.204 17.571,-1.033c13.396,3.154 8.708,18.541 8.646,27.57c-0.108,16.555 0.254,33.125 0.421,49.675c0.333,33.117 0.758,66.234 1.237,99.346c0.704,49.013 1.517,98.021 2.284,147.034c0.912,58.687 2.841,117.354 4.016,176.037c0.596,29.671 1.004,59.35 0.988,89.025c-0.017,32.492 -4.038,74.304 42.087,69.771c23.779,-2.333 35.954,-23.213 34.059,-45c-2.767,-31.879 -0.63,-64.95 -0.788,-97.034c-0.329,-66.316 -1.058,-132.633 -2.2,-198.937c-0.046,-2.654 -0.092,-5.304 -0.137,-7.958c-0.955,-53.913 -2.142,-107.821 -3.755,-161.721c-1.458,-48.654 0.934,-100.2 -6.645,-148.604c11.191,0.3 22.383,0.716 33.562,1.245c32.663,1.555 65.054,8.892 97.85,7.917c30.608,-0.908 50.571,-29.487 64.617,-53.221c16.808,-28.391 35.275,-54.9 50.554,-84.783c16.325,-31.925 31.975,-64.187 47.975,-96.275c17.125,-34.354 52.442,-72.717 48.692,-113.533" style="fill:#5a5a5a;fill-rule:nonzero;"/><path d="M879.822,297.562c17.866,-12.167 38.716,-10.225 59.212,-10.779c30.234,-0.821 60.471,-1.642 90.704,-2.463c58.021,-1.575 116.08,-2.612 174.088,-4.146c-7.779,12.379 -14.938,24.996 -20.408,38.654c-38.9,2.434 -77.4,5.059 -116.471,4.984c-36.354,-0.071 -72.609,-1.734 -108.904,-3.654c-18.021,-0.955 -36.05,-1.892 -54.101,-2.109c-9,-0.108 -18.004,-0.087 -27,0.2c-4.658,0.15 -11.266,-0.241 -17.808,-0.183c6.504,-7.446 13.342,-15.504 20.688,-20.504" style="fill:#f1e9ea;fill-rule:nonzero;"/><path d="M1297.22,792.337c-17.734,34.846 -35.804,70.442 -59.529,101.483c-4.509,4.892 -9.067,9.725 -13.692,14.496c9.417,-17.875 18.975,-35.246 29.512,-52.85c25.088,-41.9 47.767,-85.171 71.3,-127.946c8.83,-16.041 17.571,-32.137 26.225,-48.279c5.6,-10.45 14.255,-22.212 18.717,-33.791c1.471,-0.005 2.892,-0.53 4.033,-1.646c-24.487,49.991 -51.395,99.066 -76.566,148.533" style="fill:#a1a1a1;fill-rule:nonzero;"/><path d="M1382.62,586.177c-0.246,0.45 -0.525,0.862 -0.684,1.42c-3.045,10.784 -8.204,20.171 -12.462,30.342c-0.267,-0.675 -0.525,-1.337 -0.821,-2.046c-7.762,-18.583 -17.429,-36.787 -26.317,-54.866c-31.975,-65.038 -67.841,-128.35 -107.562,-188.971c-9.529,-14.542 -19.146,-29.075 -29.138,-43.304c-3.725,-5.305 -5.516,-8.013 -7.991,-9.3c-0.904,-0.471 6.633,-14.946 7.233,-16.146c4.621,-9.242 9.692,-16.709 16.617,-24.254c3.271,-3.563 13.866,21.404 14.808,22.904c4.113,6.541 8.158,13.125 12.15,19.742c7.988,13.262 15.738,26.662 23.288,40.179c15.141,27.1 29.475,54.645 43.32,82.425c11.78,23.625 23.205,47.425 34.484,71.291c5.558,11.767 11.083,23.546 16.596,35.334c2.75,5.879 5.5,11.762 8.245,17.641c1.071,2.292 9.234,15.805 8.234,17.609" style="fill:#f1e9ea;fill-rule:nonzero;"/><path d="M1054.75,1539.48c-0.004,-31.763 -0.121,-63.53 -0.316,-95.292c-0.4,-64.192 -1.188,-128.375 -2.405,-192.554c-1.02,-53.917 -2.37,-107.821 -3.837,-161.725c-0.692,-25.3 -2.608,-51.263 -3.804,-77.23c-1.184,-25.679 -1.663,-51.358 0.466,-76.404c-12.579,-0.208 -25.154,-0.133 -37.729,0.121c-5.854,0.121 -8.07,-0.608 -9.445,5.658c-1.355,6.159 -0.48,12.496 -0.988,18.705c-0.646,7.825 0.188,15.966 0.379,23.821c0.275,11.495 0.525,22.995 0.779,34.495c13.35,1.288 26.738,0.08 39.088,-3.75c0.537,6.621 0.562,12.988 0.562,18.004c8.038,180.792 8.246,365.421 0.784,546.488c4.541,-1.454 8.45,-4.383 11.666,-8.35c0.034,-0.042 0.067,-0.083 0.1,-0.129c7.75,-9.688 4.7,-20.275 4.7,-31.859" style="fill:#a1a1a1;fill-rule:nonzero;"/><path d="M1037.5,1033.33c0,-5.016 -0.029,-11.383 -0.567,-18.008c-12.345,3.833 -25.733,5.042 -39.087,3.754c0.112,5.071 0.237,10.138 0.341,15.208c0.701,33.138 1.313,66.28 1.888,99.417c0.733,42.421 1.404,84.846 2.108,127.267c0.942,56.471 0.942,112.95 1.58,169.425c0.316,28.237 0.787,56.479 1.616,84.708c0.6,20.546 -5.433,64.975 25.875,65.746c2.496,0.063 4.829,-0.325 7.029,-1.029c7.459,-181.067 7.25,-365.696 -0.783,-546.488" style="fill:#dfd1cf;fill-rule:nonzero;"/><path d="M1161.15,1516.12c-5.096,-36.367 -10.404,-72.392 -11.679,-109.5c-0.871,-25.446 -0.662,-50.925 0.633,-76.35c1.755,-34.479 -2.066,-60.813 28.488,-84.071c24.375,-18.554 54.521,-27.55 82.662,-38.575c27.234,-10.588 54.809,-20.208 82.684,-28.967c22.533,-7.083 45.412,-17.958 69.037,-13.879c15.996,26.417 19.971,52.267 23.038,83.183c1.041,10.492 1.92,21.005 2.85,31.509c-0.38,-0.542 -0.788,-1.059 -1.163,-1.609c-6.821,-10.05 -13.837,-19.97 -21.033,-29.758c-4.763,-6.471 -9.604,-12.879 -14.525,-19.229c-2.271,-2.938 -4.504,-5.717 -6.288,-8.933c-1.312,-2.367 -1.266,-2.888 -4.2,-3.33c-14.17,-2.133 -30.375,2.938 -43.145,8.596c-14.675,6.509 -28.067,15.704 -40.384,25.921c-24.021,19.929 -44.562,44.013 -62.85,69.217c-22.671,31.246 -39.766,67.266 -45.933,105.575c-2.183,13.562 -2.963,27.358 -2.138,41.075c0.409,6.866 1.225,13.704 2.434,20.475c1.033,5.8 1.15,11.916 4.341,16.941c0.425,0.667 0.9,1.313 1.442,1.938c3.525,4.075 7.704,4.837 12.383,6.804c4.65,1.954 9.142,3.888 14.013,5.4c10.975,3.408 22.158,6.092 33.146,9.458l4.196,1.284c-9.955,5.491 -20.092,10.6 -30.567,15.316c-14.513,6.534 -28.367,15.221 -43.7,19.809c-19.221,5.754 -27.225,1.166 -29.604,-17.634c-1.3,-10.27 -2.713,-20.483 -4.138,-30.666m288.834,-190.438c0.016,0.046 0.033,0.092 0.05,0.138c-0.759,0.337 -1.313,0.816 -1.617,1.416c-1.592,1.013 -2.979,1.971 -3.8,2.363c-10.942,5.2 -21.05,12.271 -30.975,19.117c-11.221,7.733 -21.909,16.55 -30.633,27.07c-4.25,5.13 -8,10.788 -11.43,16.492c-26.22,42.692 -44.358,92.392 -20.65,139.667c0.28,1 0.58,2 0.855,3.004c-11.325,-3.467 -22.655,-6.933 -33.98,-10.408c-19.812,-6.075 -39.05,-13.867 -58.762,-20.246c-9.925,-3.217 -19.975,-6.113 -30.204,-8.209c-1.863,-0.379 -6.554,-0.32 -7.996,-1.416c-0.771,-0.584 -1.392,-1.517 -1.9,-2.621c-1.242,-2.688 -1.842,-6.383 -2.367,-8.504c-3.391,-13.667 -0.916,-29.729 0.404,-43.6c3.725,-39.071 20.075,-75.934 42.917,-107.525c17.2,-23.788 37.563,-45.767 59.721,-65c20.521,-17.813 42.537,-28.438 66.967,-38.579c18.191,24.358 36.3,48.716 54.329,73.112c0.246,2.146 1.525,3.579 3.216,4.35c3.971,5.379 7.971,10.75 11.93,16.138c-2.005,1.087 -3.925,2.333 -6.075,3.241m18.191,13.288c10.071,13.775 20.054,27.6 30.009,41.446c-0.83,0.333 -1.638,0.704 -2.434,1.125c-1.816,0.791 -3.596,1.612 -5.225,2.729c-54.712,27.15 -107.779,101.012 -93.979,164.483c-10.212,-3.146 -20.417,-6.325 -30.637,-9.458c-3.459,-8.446 -7,-16.846 -10.288,-25.388c-7.971,-37.691 5.992,-75.625 24.938,-108.846c6.733,-11.808 14.304,-24.083 25.062,-32.65c14.221,-11.325 30.358,-21.408 46.738,-29.312c1.916,-0.921 14.237,-6.283 15.816,-4.129m48.525,67.346c5.709,8.037 11.392,16.091 17.046,24.166c9.025,12.879 17.45,26.196 27.4,38.321c0.825,1.308 1.688,2.588 2.471,3.933c0.721,1.25 1.404,2.559 2.096,3.871c-3.08,2.584 -13.021,6.938 -14.175,7.65c-4.471,2.754 -8.534,7.363 -12.305,10.992c-8.291,7.975 -16.029,16.608 -22.625,26.05c-12.079,17.287 -21.508,39.354 -14.316,60.479c-22.434,-7.062 -44.863,-14.129 -67.309,-21.158c-6.537,-2.05 -13.1,-4.038 -19.645,-6.067c-0.109,-0.35 -0.184,-0.704 -0.288,-1.054c-0.375,-8.358 -1.817,-16.667 -1.325,-25.317c0.95,-16.666 5.246,-32.437 12.2,-47.6c14.846,-32.379 39.817,-59.946 67.575,-81.933c0.534,-0.054 1.058,-0.2 1.475,-0.496c3.55,-2.521 7.088,-4.196 11.113,-5.583c3.45,4.75 7.508,9.375 10.612,13.746m68.471,99.579c2.375,3.608 -15.225,11.6 -17.425,13.266c-11.154,8.455 -19.446,23 -25.721,35.184c-6.383,12.387 -9.171,25.579 -5.417,38.221c-4.037,-1.271 -8.079,-2.538 -12.116,-3.809c-1.013,-1.25 -1.917,-2.579 -2.796,-3.933c-0.042,-0.3 -0.038,-0.596 -0.117,-0.9c-4.866,-18.892 -4.9,-29.275 4.55,-46.033c4.088,-7.25 8.209,-14.317 12.688,-21.084c9.562,-11.941 21.091,-21.412 34.287,-29.033c4.054,6.012 8.046,12.071 12.067,18.121m69.717,109.912c0.491,1.284 0.67,2.742 0.433,4.084c-0.179,1.004 -0.588,1.945 -1.279,2.708c-1.85,2.042 -4.967,2.167 -7.721,2.087c-14.771,-0.42 -28.658,-4.916 -42.763,-9.279c-15.233,-4.716 -29.912,-10.987 -45.066,-15.929c-1.121,-1.404 -2.217,-2.825 -3.25,-4.287c-0.317,-0.563 -0.654,-1.113 -1.042,-1.63c-0.029,-0.041 -0.087,-0.095 -0.125,-0.137c-0.717,-1.058 -1.437,-2.113 -2.112,-3.204c-2.071,-6.3 -2.388,-12.604 -1.463,-18.809c4.479,-21.704 25.779,-44.195 42.971,-49.887c0.571,-0.192 1.083,-0.475 1.571,-0.8c-0.45,0.304 56.437,86.117 59.846,95.083m-477.988,-33.046c38.725,-6.525 78.358,-28.879 113.346,-47.008l42.362,12.975c42.109,12.896 84.23,25.725 126.413,38.371c42.204,12.65 84.446,25.167 126.637,37.862c22.984,6.921 46.784,15.467 71.092,14.371c4.2,-0.187 8.658,-0.741 11.925,-3.391c4.104,-3.33 5.288,-9.275 4.288,-14.463c-1.288,-6.646 -5.442,-13.104 -8.963,-18.779c-25.45,-41.05 -51.408,-81.792 -78.196,-121.988c-26.837,-40.27 -54.512,-80 -83.329,-118.887c-14.387,-19.417 -29.062,-38.625 -44.058,-57.579c-1.463,-1.846 -2.946,-3.659 -4.429,-5.467c-1.255,-19.537 -3.063,-39.096 -5.459,-58.592c-1.904,-23.237 -0.346,-55.033 -9.404,-76.666c-12.412,-29.629 -39.992,-15.525 -61.983,-8.813c-32.925,10.05 -65.579,20.992 -97.913,32.817c-32.008,11.712 -63.141,25.617 -94.354,39.262c-21.279,9.305 -49.467,24.65 -50.033,50.234c-1.325,59.641 -5.796,119.412 -1.254,179.025c1.962,25.725 2.404,52.883 6.491,78.129c3.292,20.354 8.867,53.296 36.821,48.587" style="fill:#5a5a5a;fill-rule:nonzero;"/><path d="M1595.04,1520.72c-0.487,0.325 -1,0.608 -1.57,0.8c-17.192,5.691 -38.492,28.183 -42.971,49.887c-0.2,1.346 -0.313,2.7 -0.392,4.054c32.667,11.346 65.808,21.438 99.25,30.405c-15.029,-24.925 -54.696,-84.892 -54.317,-85.146" style="fill:#dfd1cf;fill-rule:nonzero;"/><path d="M1649.36,1605.87c-33.442,-8.967 -66.588,-19.054 -99.25,-30.404c-0.283,4.887 0.233,9.82 1.854,14.75c0.675,1.095 1.396,2.145 2.108,3.208c0.042,0.042 0.1,0.096 0.13,0.137c0.387,0.517 0.725,1.067 1.041,1.63c1.034,1.462 2.129,2.883 3.25,4.287c15.15,4.942 29.834,11.213 45.067,15.925c14.1,4.367 27.992,8.863 42.762,9.283c2.755,0.08 5.871,-0.045 7.721,-2.087c0.692,-0.763 1.1,-1.704 1.279,-2.708c0.238,-1.346 0.059,-2.8 -0.433,-4.084c-0.558,-1.475 -2.579,-5.041 -5.529,-9.937" style="fill:#a1a1a1;fill-rule:nonzero;"/><path d="M1542.02,1554.34c6.275,-12.179 14.567,-26.729 25.721,-35.179c2.2,-1.667 19.8,-9.662 17.425,-13.271c-4.021,-6.046 -8.012,-12.104 -12.067,-18.121c-13.195,7.625 -24.725,17.092 -34.287,29.034c-4.479,6.766 -8.6,13.833 -12.688,21.083c-5.591,9.913 -7.8,17.617 -7.716,26.15c5.879,2.217 11.779,4.371 17.691,6.5c1.184,-5.475 3.196,-10.908 5.921,-16.196" style="fill:#4b8dff;fill-rule:nonzero;"/><path d="M1536.1,1570.54c-5.912,-2.13 -11.812,-4.284 -17.687,-6.5c0.058,5.891 1.175,12.17 3.162,19.883c0.079,0.304 0.075,0.6 0.117,0.904c0.883,1.354 1.787,2.679 2.796,3.933c4.037,1.267 8.079,2.538 12.116,3.809c-2.15,-7.25 -2.096,-14.675 -0.504,-22.029" style="fill:#3b67b4;fill-rule:nonzero;"/><path d="M1516.61,1521.29c6.596,-9.442 14.333,-18.075 22.625,-26.05c3.771,-3.629 7.833,-8.234 12.304,-10.992c1.154,-0.712 11.096,-5.067 14.175,-7.65c-0.687,-1.312 -1.375,-2.621 -2.096,-3.867c-0.783,-1.35 -1.645,-2.629 -2.47,-3.937c-9.95,-12.125 -18.375,-25.438 -27.4,-38.321c-5.655,-8.075 -11.338,-16.129 -17.046,-24.167c-3.1,-4.37 -7.163,-8.995 -10.613,-13.741c-4.025,1.383 -7.562,3.058 -11.112,5.579c-0.417,0.296 -0.942,0.442 -1.475,0.496c-27.759,21.987 -52.725,49.554 -67.575,81.937c-5.688,12.4 -9.563,25.221 -11.317,38.596c28.1,13.825 56.808,26.471 86.013,37.988c2.195,-12.875 8.583,-25.271 15.987,-35.871" style="fill:#dfd1cf;fill-rule:nonzero;"/><path d="M1500.62,1557.16c-29.204,-11.516 -57.913,-24.162 -86.013,-37.983c-0.391,2.975 -0.712,5.967 -0.883,9c-0.492,8.646 0.95,16.958 1.329,25.313c0.1,0.354 0.175,0.704 0.283,1.058c6.546,2.029 13.109,4.016 19.65,6.062c22.442,7.034 44.871,14.096 67.305,21.163c-2.784,-8.175 -3.055,-16.488 -1.671,-24.613" style="fill:#a1a1a1;fill-rule:nonzero;"/><path d="M1490.52,1384.27c1.629,-1.117 3.409,-1.938 5.225,-2.734c0.796,-0.417 1.609,-0.787 2.434,-1.125c-9.95,-13.846 -19.938,-27.667 -30.009,-41.442c-1.575,-2.154 -13.9,3.205 -15.812,4.13c-16.384,7.9 -32.521,17.983 -46.742,29.308c-10.758,8.567 -18.329,20.842 -25.062,32.654c-14.359,25.179 -25.834,53.067 -27.088,81.504c13.933,8.054 28.063,15.759 42.363,23.15c8.333,-52.221 50.97,-103.75 94.691,-125.446" style="fill:#4b8dff;fill-rule:nonzero;"/><path d="M1395.83,1509.71c-14.301,-7.388 -28.43,-15.096 -42.363,-23.15c-0.4,9.083 0.221,18.216 2.15,27.341c3.287,8.542 6.829,16.942 10.287,25.388c10.221,3.133 20.425,6.317 30.638,9.458c-2.771,-12.746 -2.808,-25.912 -0.713,-39.037" style="fill:#3b67b4;fill-rule:nonzero;"/><path d="M1371.58,1392.28c3.429,-5.704 7.179,-11.362 11.433,-16.491c8.721,-10.525 19.413,-19.338 30.629,-27.071c9.929,-6.846 20.034,-13.917 30.979,-19.121c0.821,-0.387 2.205,-1.35 3.796,-2.358c0.309,-0.6 0.859,-1.079 1.617,-1.417c-0.017,-0.046 -0.033,-0.092 -0.05,-0.137c2.15,-0.913 4.075,-2.155 6.079,-3.242c-3.962,-5.388 -7.958,-10.758 -11.933,-16.142c-1.688,-0.766 -2.971,-2.204 -3.217,-4.346c-18.025,-24.395 -36.137,-48.754 -54.325,-73.112c-24.429,10.137 -46.45,20.762 -66.971,38.579c-22.154,19.233 -42.516,41.213 -59.716,64.996c-14.475,20.017 -26.325,42.154 -34.025,65.621c36.091,30 74.341,56.754 114.245,80.662c1.721,-30.012 14.988,-59.6 31.459,-86.421" style="fill:#dfd1cf;fill-rule:nonzero;"/><path d="M1340.12,1478.7c-39.908,-23.908 -78.158,-50.663 -114.25,-80.663c-4.45,13.575 -7.525,27.592 -8.892,41.909c-1.321,13.87 -3.795,29.933 -0.404,43.6c0.525,2.121 1.125,5.816 2.367,8.504c0.508,1.104 1.129,2.037 1.9,2.621c1.441,1.091 6.133,1.037 7.996,1.416c10.229,2.096 20.279,4.992 30.204,8.205c19.712,6.383 38.95,14.17 58.762,20.25c11.325,3.475 22.655,6.937 33.979,10.404c-0.274,-1 -0.574,-2 -0.854,-3c-8.812,-17.575 -11.825,-35.484 -10.808,-53.246" style="fill:#a1a1a1;fill-rule:nonzero;"/><path d="M1436.01,1247.96c-3.07,-30.917 -7.041,-56.767 -23.041,-83.188c-23.621,-4.079 -46.5,6.8 -69.038,13.879c-27.871,8.763 -55.45,18.38 -82.679,28.971c-28.142,11.025 -58.292,20.021 -82.662,38.575c-30.559,23.259 -26.738,49.592 -28.492,84.067c-1.296,25.425 -1.504,50.908 -0.629,76.354c0.471,13.671 1.491,27.192 2.846,40.642c14.3,6.487 29.566,9.262 44.658,5.737c0.158,-9.071 0.921,-18.125 2.362,-27.083c6.167,-38.304 23.263,-74.329 45.938,-105.575c18.287,-25.204 38.825,-49.283 62.846,-69.213c12.321,-10.22 25.712,-19.416 40.383,-25.92c12.771,-5.659 28.975,-10.73 43.146,-8.596c2.933,0.441 2.892,0.958 4.204,3.329c1.783,3.217 4.013,5.996 6.288,8.929c4.92,6.35 9.762,12.763 14.52,19.233c7.2,9.784 14.213,19.709 21.038,29.759c0.375,0.55 0.783,1.066 1.162,1.608c-0.933,-10.504 -1.808,-21.021 -2.85,-31.508" style="fill:#4b8dff;fill-rule:nonzero;"/><path d="M1152.32,1447.26c2.317,23.054 5.617,45.888 8.834,68.858c1.425,10.184 2.837,20.396 4.137,30.667c2.379,18.8 10.383,23.388 29.604,17.633c15.334,-4.587 29.184,-13.275 43.7,-19.808c10.475,-4.717 20.609,-9.825 30.567,-15.317l-4.196,-1.283c-10.987,-3.367 -22.171,-6.05 -33.146,-9.458c-4.871,-1.513 -9.362,-3.446 -14.012,-5.4c-4.679,-1.967 -8.859,-2.729 -12.384,-6.804c-0.541,-0.625 -1.016,-1.271 -1.441,-1.938c-3.192,-5.025 -3.309,-11.142 -4.346,-16.942c-1.208,-6.77 -2.021,-13.608 -2.429,-20.475c-0.284,-4.658 -0.309,-9.329 -0.229,-13.995c-15.092,3.529 -30.355,0.75 -44.659,-5.738" style="fill:#3b67b4;fill-rule:nonzero;"/><path d="M863.461,1523.23c-12.2,10.971 -26.225,19.716 -39.613,29.12c-25.825,18.146 -47.591,41.43 -74.929,57.426c-30.708,17.97 -65.837,28.712 -101.379,30.825c-35.079,2.083 -67.725,-5.821 -101.138,-15.542c-37.849,-11.013 -75.754,-21.875 -113.508,-33.221c-16.5,-4.954 -32.9,-10.162 -49.146,-15.896c-8.312,-2.933 -21.8,-5.375 -28.641,-11.212c-23.938,-20.421 -4.109,-28.175 8.533,-36.921c24.913,-17.242 51.413,-32.238 78.813,-45.183c-0.984,3.02 -1.992,6.037 -2.942,9.07c-2.408,7.663 -4.721,15.359 -6.938,23.08c-1.02,3.57 -1.945,7.008 -3.487,10.35c-1.133,2.458 -1.579,2.729 -0.204,5.358c6.654,12.692 20.321,22.767 32.433,29.725c13.917,7.996 29.246,13.367 44.771,17.267c30.271,7.604 61.837,9.941 92.975,9.804c38.604,-0.171 77.766,-7.667 112.317,-25.325c12.233,-6.254 23.82,-13.779 34.404,-22.55c5.291,-4.388 10.329,-9.084 15.075,-14.059c4.071,-4.262 8.937,-7.97 11.104,-13.516c0.287,-0.738 0.525,-1.504 0.708,-2.309c1.204,-5.25 -0.646,-9.075 -1.825,-14.008c-1.171,-4.908 -2.266,-9.671 -3.925,-14.496c-2.946,-8.571 -6.267,-17 -9.417,-25.491c32.746,8.541 64.4,19.479 95.571,33.22c4.904,2.163 21.529,6.709 23.304,10.746c3.717,8.454 -7.845,19.175 -12.916,23.738m-394.838,-82.913c1.588,-1.466 1.988,-3.35 1.613,-5.166c1.992,-6.384 3.962,-12.784 5.967,-19.163c2.062,0.975 4.204,1.792 6.208,2.988c0.025,-0.042 0.054,-0.08 0.083,-0.121c0.717,0.412 1.429,0.575 2.096,0.466c1.758,0.688 3.35,1.238 4.15,1.671c10.663,5.754 22.338,9.729 33.725,13.692c12.871,4.483 26.296,7.896 39.942,8.717c6.65,0.4 13.429,0.079 20.058,-0.521c49.933,-4.075 100.746,-18.813 124.875,-65.871c0.646,-0.817 1.275,-1.65 1.917,-2.463c3.9,11.184 7.796,22.371 11.683,33.563c6.808,19.575 11.892,39.696 18.388,59.371c3.274,9.908 6.875,19.725 11.229,29.212c0.791,1.729 3.612,5.479 3.579,7.292c-0.017,0.967 -0.4,2.017 -0.992,3.079c-1.433,2.592 -4.058,5.258 -5.458,6.938c-9.021,10.812 -23.446,18.304 -35.417,25.433c-33.716,20.083 -73.121,28.675 -112.104,28.912c-29.354,0.18 -59.117,-3.262 -87.725,-9.77c-26.496,-6.03 -48.083,-17.513 -70.696,-31.23c5.288,-17.27 10.642,-34.479 15.971,-51.708c0.029,-0.012 0.054,-0.025 0.083,-0.037c2.509,-1.1 2.78,-3.846 1.784,-6.009c3.021,-9.754 6.008,-19.537 9.041,-29.275m13.759,-43.871c5.162,-16.262 10.412,-32.487 15.7,-48.695c0.762,0.466 1.537,0.904 2.35,1.295c1.712,1 3.425,1.95 5.287,2.605c54.234,28.095 145.175,27.262 188.229,-21.375c3.496,10.095 6.959,20.208 10.471,30.304c-4.766,7.783 -9.45,15.604 -14.4,23.304c-25.7,28.7 -64.55,39.85 -102.546,44.196c-13.508,1.546 -27.883,2.691 -41.154,-0.925c-17.537,-4.779 -35.208,-11.842 -51.262,-20.388c-1.875,-1 -13.484,-7.775 -12.675,-10.321m25.654,-78.941c3.112,-9.354 6.254,-18.696 9.425,-28.03c5.058,-14.891 10.825,-29.558 14.729,-44.745c0.563,-1.442 1.087,-2.892 1.712,-4.321c0.58,-1.321 1.23,-2.646 1.884,-3.979c3.9,0.958 13.287,6.404 14.546,6.916c4.866,1.979 10.979,2.534 16.137,3.434c11.333,1.975 22.871,3.116 34.383,2.858c21.088,-0.471 44.459,-5.904 57.255,-24.188c7.558,22.271 15.112,44.546 22.7,66.805c2.212,6.487 4.487,12.954 6.716,19.433c-0.221,0.296 -0.462,0.563 -0.683,0.854c-6.521,5.242 -12.371,11.317 -19.638,16.029c-14.008,9.084 -29.27,14.934 -45.608,18.284c-34.9,7.154 -71.892,3.3 -106.033,-6.1c-0.359,-0.4 -0.788,-0.738 -1.271,-0.9c-4.129,-1.371 -7.575,-3.238 -11.071,-5.667c1.796,-5.588 3.125,-11.596 4.817,-16.683m39.879,-114.075c1.508,-4.05 18.354,5.425 21,6.216c13.408,4 30.046,2.096 43.579,-0.037c13.767,-2.171 26.054,-7.721 34.038,-18.217c1.362,4.009 2.725,8.017 4.087,12.025c-0.412,1.554 -0.95,3.071 -1.521,4.579c-0.216,0.213 -0.458,0.384 -0.658,0.63c-12.367,15.087 -20.721,21.249 -39.825,23.529c-8.267,0.987 -16.4,1.837 -24.508,2.22c-15.28,-0.658 -29.734,-4.366 -43.679,-10.504c2.454,-6.825 4.983,-13.625 7.487,-20.441m47.475,-121.196c0.746,-1.15 1.817,-2.159 3.042,-2.759c0.912,-0.45 1.916,-0.679 2.937,-0.57c2.742,0.287 4.683,2.729 6.25,4.995c8.388,12.167 12.967,26.03 17.779,39.984c5.196,15.075 8.813,30.625 13.779,45.766c-0.47,1.738 -0.97,3.459 -1.537,5.159c-0.267,0.587 -0.513,1.183 -0.7,1.804c-0.017,0.05 -0.021,0.125 -0.038,0.183c-0.433,1.2 -0.854,2.404 -1.337,3.592c-3.858,5.396 -8.754,9.375 -14.308,12.296c-20.154,9.208 -50.888,5.316 -65.638,-5.188c-0.491,-0.35 -1.025,-0.596 -1.575,-0.796c0.513,0.188 36.129,-96.416 41.346,-104.466m299.792,415.904c-3.813,-11.342 -21.475,-15.983 -30.796,-20.321c-36.317,-16.896 -74.654,-30.067 -113.35,-40.417l-4.763,-13.687l-14.566,-41.842c-14.475,-41.587 -29.017,-83.15 -43.742,-124.654c-14.729,-41.525 -29.592,-83 -44.279,-124.537c-8,-22.634 -15.167,-46.884 -30.413,-65.846c-2.637,-3.279 -5.716,-6.546 -9.787,-7.617c-5.108,-1.346 -10.608,1.213 -14.2,5.088c-4.6,4.962 -7.358,12.129 -9.858,18.325c-18.075,44.791 -35.605,89.804 -52.205,135.162c-16.629,45.454 -32.329,91.254 -46.675,137.479c-7.162,23.084 -13.987,46.271 -20.416,69.567c-0.625,2.271 -1.213,4.542 -1.796,6.804l-6.738,23.696c0.034,-0.029 0.067,-0.058 0.1,-0.088c-0.212,0.63 -0.387,1.263 -0.612,1.888c-1.496,4.2 -2.929,8.425 -4.367,12.642c-30.333,11.712 -59.312,25.895 -86.666,43.679c-16.034,10.421 -42.984,25.133 -29.75,48.129c4.941,8.583 13.962,13.058 22.675,16.8c18.137,7.792 36.916,14.275 55.716,20.246c38.534,12.233 77.538,23.058 116.334,34.416c67.7,19.817 130.616,31.684 198.575,4.796c28.875,-11.421 53.483,-28.479 76.8,-48.704c25.004,-21.687 54.991,-37.371 78.825,-60.354c7.47,-7.204 20.012,-18.563 15.954,-30.65" style="fill:#5a5a5a;fill-rule:nonzero;"/><path d="M635.565,1180.39c0.483,-1.187 0.908,-2.392 1.341,-3.596c0.013,-0.054 0.017,-0.133 0.034,-0.183c0.187,-0.617 0.433,-1.213 0.7,-1.8c0.566,-1.7 1.07,-3.425 1.537,-5.158c-4.967,-15.146 -8.583,-30.696 -13.779,-45.767c-3.154,-9.154 -6.233,-18.258 -10.329,-26.879c5.9,28.954 11.358,58.279 16.912,87.65c1.267,-1.321 2.479,-2.721 3.584,-4.267" style="fill:#3b67b4;fill-rule:nonzero;"/><path d="M615.068,1097.01c-2.15,-4.52 -4.563,-8.92 -7.451,-13.108c-1.562,-2.267 -3.508,-4.704 -6.245,-4.992c-1.021,-0.108 -2.025,0.117 -2.942,0.567c-1.225,0.6 -2.292,1.608 -3.042,2.758c-5.216,8.05 -40.833,104.655 -41.341,104.467c0.55,0.2 1.083,0.446 1.575,0.796c14.75,10.504 45.479,14.4 65.637,5.187c3.958,-2.083 7.567,-4.737 10.721,-8.025c-5.554,-29.375 -11.013,-58.695 -16.913,-87.65" style="fill:#3b67b4;fill-rule:nonzero;"/><path d="M635.2,1201.59c-6.617,4.129 -14.383,6.704 -22.704,8.017c-13.538,2.133 -30.171,4.037 -43.579,0.037c-2.646,-0.792 -19.496,-10.262 -21.005,-6.217c-2.5,6.817 -5.029,13.617 -7.487,20.442c13.946,6.142 28.4,9.85 43.683,10.504c8.104,-0.383 16.242,-1.233 24.504,-2.221c13.73,-1.633 21.905,-5.341 30.005,-12.862c-1.15,-5.896 -2.288,-11.796 -3.417,-17.7" style="fill:#dfd1cf;fill-rule:nonzero;"/><path d="M648.44,1208.63c0.2,-0.242 0.441,-0.417 0.662,-0.625c0.567,-1.513 1.104,-3.03 1.517,-4.584c-1.363,-4.008 -2.725,-8.016 -4.088,-12.025c-3.154,4.15 -7.004,7.5 -11.329,10.2c1.125,5.9 2.267,11.805 3.417,17.7c3.175,-2.946 6.341,-6.42 9.821,-10.666" style="fill:#a1a1a1;fill-rule:nonzero;"/><path d="M667.202,1328.58c7.266,-4.713 13.116,-10.788 19.637,-16.03c0.225,-0.291 0.467,-0.558 0.684,-0.854c-2.23,-6.479 -4.505,-12.946 -6.717,-19.433c-7.588,-22.263 -15.142,-44.533 -22.7,-66.804c-4.175,5.971 -9.492,10.546 -15.475,14.05c6.204,30.766 12.929,61.346 20.796,91.383c1.266,-0.754 2.529,-1.504 3.775,-2.312" style="fill:#3b67b4;fill-rule:nonzero;"/><path d="M642.63,1239.51c-12.346,7.229 -27.575,9.816 -41.775,10.137c-11.517,0.258 -23.05,-0.883 -34.383,-2.858c-5.159,-0.9 -11.275,-1.459 -16.142,-3.434c-1.254,-0.512 -10.642,-5.958 -14.546,-6.916c-0.65,1.333 -1.3,2.658 -1.883,3.979c-0.625,1.425 -1.146,2.875 -1.713,4.317c-3.904,15.191 -9.666,29.858 -14.729,44.745c-3.171,9.334 -6.308,18.68 -9.421,28.034c-1.695,5.083 -3.025,11.091 -4.816,16.683c3.496,2.425 6.937,4.292 11.066,5.667c0.488,0.162 0.913,0.5 1.275,0.896c34.138,9.404 71.134,13.258 106.03,6.104c14.887,-3.054 28.87,-8.213 41.837,-15.971c-7.867,-30.038 -14.596,-60.621 -20.8,-91.383" style="fill:#4b8dff;fill-rule:nonzero;"/><path d="M690.017,1383.89c4.95,-7.7 9.633,-15.521 14.404,-23.304c-3.512,-10.096 -6.975,-20.208 -10.475,-30.304c-7.175,8.104 -15.7,14.854 -25.141,20.392c3.954,14 8.187,27.862 12.787,41.541c2.929,-2.608 5.763,-5.35 8.425,-8.325" style="fill:#a1a1a1;fill-rule:nonzero;"/><path d="M668.805,1350.67c-47.221,27.692 -117.892,24.396 -163.084,0.983c-1.862,-0.654 -3.579,-1.604 -5.291,-2.6c-0.809,-0.396 -1.588,-0.829 -2.346,-1.3c-5.288,16.213 -10.542,32.438 -15.704,48.7c-0.809,2.546 10.8,9.317 12.679,10.317c16.05,8.546 33.721,15.608 51.262,20.392c13.267,3.616 27.642,2.466 41.15,0.925c34.059,-3.9 68.775,-13.305 94.121,-35.875c-4.6,-13.68 -8.833,-27.542 -12.787,-41.542" style="fill:#dfd1cf;fill-rule:nonzero;"/><path d="M747.685,1514c1.4,-1.679 4.029,-4.345 5.462,-6.933c0.588,-1.067 0.975,-2.117 0.992,-3.079c0.029,-1.813 -2.788,-5.563 -3.584,-7.292c-4.354,-9.491 -7.954,-19.308 -11.225,-29.216c-6.5,-19.675 -11.583,-39.796 -18.387,-59.371c-3.892,-11.188 -7.788,-22.375 -11.683,-33.563c-0.646,0.817 -1.275,1.646 -1.917,2.463c-5.708,11.129 -12.946,20.396 -21.275,28.196c14.417,40.483 32.246,79.225 55.179,115.233c2.325,-2.025 4.521,-4.142 6.438,-6.438" style="fill:#3b67b4;fill-rule:nonzero;"/><path d="M686.07,1405.21c-26.884,25.183 -65.48,34.562 -103.605,37.675c-6.629,0.6 -13.408,0.921 -20.062,0.521c-13.642,-0.821 -27.067,-4.234 -39.938,-8.717c-11.387,-3.963 -23.062,-7.938 -33.729,-13.692c-0.796,-0.433 -2.391,-0.983 -4.146,-1.671c-0.666,0.109 -1.379,-0.054 -2.1,-0.466c-0.025,0.041 -0.054,0.083 -0.079,0.121c-2.004,-1.196 -4.146,-2.013 -6.208,-2.988c-2.004,6.379 -3.975,12.779 -5.971,19.163c0.379,1.816 -0.021,3.7 -1.608,5.166c-3.038,9.738 -6.021,19.521 -9.042,29.275c0.996,2.163 0.725,4.909 -1.783,6.009c-0.029,0.012 -0.054,0.024 -0.084,0.037c-5.329,17.229 -10.683,34.438 -15.97,51.708c22.612,13.717 44.195,25.2 70.695,31.229c28.609,6.509 58.371,9.95 87.725,9.771c38.984,-0.237 78.384,-8.829 112.105,-28.912c9.429,-5.617 20.345,-11.484 28.979,-18.996c-22.938,-36.012 -40.763,-74.75 -55.179,-115.233" style="fill:#4b8dff;fill-rule:nonzero;"/><path d="M644.437,1583.48c-15.005,2.492 -30.23,3.734 -45.375,3.805c-31.138,0.137 -62.705,-2.205 -92.975,-9.809c-15.525,-3.9 -30.855,-9.266 -44.775,-17.262c-12.113,-6.959 -25.78,-17.034 -32.43,-29.725c-1.375,-2.63 -0.929,-2.9 0.205,-5.359c1.541,-3.341 2.462,-6.783 3.487,-10.35c2.217,-7.721 4.529,-15.416 6.938,-23.079c0.95,-3.033 1.958,-6.05 2.941,-9.071c-27.404,12.942 -53.9,27.942 -78.812,45.184c-12.642,8.745 -32.471,16.5 -8.534,36.92c6.842,5.838 20.33,8.28 28.642,11.213c16.246,5.733 32.646,10.942 49.146,15.896c37.75,11.346 75.658,22.208 113.508,33.221c33.413,9.72 66.059,17.625 101.138,15.541c35.541,-2.112 70.666,-12.854 101.379,-30.825c11.958,-7 22.837,-15.412 33.467,-24.158c-43.525,10.971 -92.292,9.146 -137.95,-2.142" style="fill:#dfd1cf;fill-rule:nonzero;"/><path d="M863.461,1523.23c5.071,-4.563 16.633,-15.284 12.916,-23.738c-1.775,-4.037 -18.4,-8.583 -23.304,-10.746c-31.171,-13.741 -62.825,-24.679 -95.571,-33.22c3.15,8.491 6.471,16.92 9.417,25.491c1.658,4.825 2.754,9.588 3.925,14.496c1.179,4.933 3.029,8.758 1.825,14.008c-0.183,0.804 -0.421,1.571 -0.708,2.309c-2.167,5.545 -7.034,9.254 -11.104,13.516c-4.746,4.975 -9.784,9.671 -15.075,14.059c-10.584,8.771 -22.171,16.295 -34.405,22.55c-20.995,10.729 -43.7,17.658 -66.941,21.521c45.658,11.287 94.425,13.112 137.954,2.141c13.671,-11.246 26.929,-23.058 41.458,-33.266c13.388,-9.405 27.413,-18.15 39.613,-29.121" style="fill:#a1a1a1;fill-rule:nonzero;"/><text x="542.713px" y="1810.16px" style="font-family:'Helvetica-Bold', 'Helvetica';font-weight:700;font-size:44.309px;fill:#fff;">p<tspan x="578.114px 598.761px 631.739px 664.718px 697.696px 730.675px 748.349px 773.929px 806.907px 829.998px 865.4px 890.979px 926.381px 948.31px 971.402px 1006.8px 1027.31px 1050.4px 1085.81px 1118.78px 1140.34px 1175.75px 1201.33px 1234.3px 1267.28px 1287.93px 1323.33px 1358.73px 1391.71px 1406.33px 1441.73px 1474.71px 1510.11px " y="1810.16px 1810.16px 1810.16px 1810.16px 1810.16px 1810.16px 1810.16px 1810.16px 1810.16px 1810.16px 1810.16px 1810.16px 1810.16px 1810.16px 1810.16px 1810.16px 1810.16px 1810.16px 1810.16px 1810.16px 1810.16px 1810.16px 1810.16px 1810.16px 1810.16px 1810.16px 1810.16px 1810.16px 1810.16px 1810.16px 1810.16px 1810.16px 1810.16px ">lease return to the previous page</tspan></text></g><g id="DESIGNED-BY-FREEPIK" serif:id="DESIGNED BY FREEPIK"></g></svg>