<?xml version="1.0" encoding="UTF-8" standalone="no"?><!DOCTYPE svg PUBLIC "-//W3C//DTD SVG 1.1//EN" "http://www.w3.org/Graphics/SVG/1.1/DTD/svg11.dtd"><svg width="100%" height="100%" viewBox="0 0 125 125" version="1.1" xmlns="http://www.w3.org/2000/svg" xmlns:xlink="http://www.w3.org/1999/xlink" xml:space="preserve" xmlns:serif="http://www.serif.com/" style="fill-rule:evenodd;clip-rule:evenodd;stroke-linejoin:round;stroke-miterlimit:2;"><g id="Layer-1" serif:id="Layer 1"></g><g id="logos"><path d="M47.067,67.505c-10.156,-0 -18.39,-8.491 -18.39,-18.965c0,-10.474 8.234,-18.964 18.39,-18.964c10.156,-0 18.388,8.49 18.388,18.964c0,10.474 -8.232,18.965 -18.388,18.965m47.066,-32.355c0,-19.333 -15.337,-35.15 -34.082,-35.15l-25.968,-0c-18.746,-0 -34.083,15.817 -34.083,35.15l-0,26.78c-0,19.333 15.337,35.15 34.083,35.15l25.968,0c18.745,0 34.082,-15.817 34.082,-35.15l0,-26.78Z" style="fill:#00a998;fill-rule:nonzero;"/><path d="M106.611,87.071c-10.156,0 -18.389,8.491 -18.389,18.965c0,10.473 8.233,18.964 18.389,18.964c10.156,0 18.389,-8.491 18.389,-18.964c-0,-10.474 -8.233,-18.965 -18.389,-18.965" style="fill:#00a998;fill-rule:nonzero;"/></g><g id="Layer-3" serif:id="Layer 3"></g><g id="Layer-4" serif:id="Layer 4"></g></svg>