<?xml version="1.0" encoding="UTF-8" standalone="no"?><!DOCTYPE svg PUBLIC "-//W3C//DTD SVG 1.1//EN" "http://www.w3.org/Graphics/SVG/1.1/DTD/svg11.dtd"><svg width="100%" height="100%" viewBox="0 0 8000 1691" version="1.1" xmlns="http://www.w3.org/2000/svg" xmlns:xlink="http://www.w3.org/1999/xlink" xml:space="preserve" xmlns:serif="http://www.serif.com/" style="fill-rule:evenodd;clip-rule:evenodd;stroke-linejoin:round;stroke-miterlimit:2;"><g id="Layer-1" serif:id="Layer 1"></g><g id="logos"><path d="M2235.97,805.489l-134.029,-121.309l-32.291,38.159l132.079,118.375c-47.942,41.091 -110.559,65.546 -182.959,65.546c-170.237,-0 -285.679,-135.98 -285.679,-304.25c0,-168.288 115.442,-304.267 285.679,-304.267c170.242,-0 285.684,135.979 285.684,304.267c-0,78.25 -25.442,149.666 -68.484,203.479m121.309,-203.479c-0,-197.642 -140.879,-354.175 -338.509,-354.175c-197.625,-0 -338.504,156.533 -338.504,354.175c0,197.612 140.879,354.145 338.504,354.145c87.071,0 163.388,-30.325 221.117,-81.2l100.754,89.034l31.309,-37.171l-97.821,-87.088c51.846,-62.612 83.15,-145.766 83.15,-237.72" style="fill:#3b176b;fill-rule:nonzero;"/><path d="M2980.4,682.229c0,133.062 -56.745,224.033 -192.725,224.033c-135.996,0 -192.741,-90.971 -192.741,-224.033l-0,-422.659l-50.88,0l0.001,427.542c-0.001,159.488 87.087,269.042 243.62,269.042c156.534,-0 243.604,-109.554 243.604,-269.042l0.001,-427.542l-50.88,0l0,422.659Z" style="fill:#3b176b;fill-rule:nonzero;"/><path d="M3330.56,697.865l148.717,-381.55l148.717,381.55l-297.434,-0Zm120.342,-438.296l-272.958,684.85l54.796,0l78.266,-199.575l336.542,0l78.267,199.575l54.795,0l-272.962,-684.85l-56.746,0Z" style="fill:#3b176b;fill-rule:nonzero;"/><path d="M3978.17,259.568l-50.879,0l-0,684.85l377.65,0l-0,-46.958l-326.771,0l-0,-637.892Z" style="fill:#3b176b;fill-rule:nonzero;"/><rect x="4467.29" y="259.571" width="50.879" height="684.85" style="fill:#3b176b;"/><path d="M4739.23,944.42l117.392,-0l-0,-294.484l269.041,0l0,-111.541l-269.041,-0l-0,-167.284l288.612,0l0,-111.541l-406.004,-0l-0,684.85Z" style="fill:#3b176b;fill-rule:nonzero;"/><path d="M5413.26,674.393l102.721,-267.091l102.725,267.091l-205.446,0Zm43.042,-414.825l-266.109,684.85l118.375,0l62.617,-162.4l289.596,0l62.612,162.4l118.379,0l-266.108,-684.85l-119.362,0Z" style="fill:#3b176b;fill-rule:nonzero;"/><path d="M6269.25,846.598c-134.996,0 -227.95,-112.525 -227.95,-244.587c-0,-132.096 92.954,-244.588 227.95,-244.588c112.508,0 174.154,75.317 174.154,75.317l79.254,-77.283c-0,-0 -89.038,-107.625 -253.408,-107.625c-197.609,-0 -347.309,151.65 -347.309,354.179c0,202.512 149.7,354.146 347.309,354.146c173.17,-0 263.175,-116.43 263.175,-116.43l-78.267,-77.283c-0,0 -64.567,84.154 -184.908,84.154" style="fill:#3b176b;fill-rule:nonzero;"/><path d="M6612.59,371.11l188.808,-0l0,573.308l117.409,0l-0,-573.308l188.808,-0l0,-111.542l-495.025,0l0,111.542Z" style="fill:#3b176b;fill-rule:nonzero;"/><path d="M7512.6,555.034c-93.921,-35.209 -147.733,-53.813 -147.733,-113.492c-0,-45.975 45.975,-82.167 104.675,-82.167c85.116,0 141.862,77.284 141.862,77.284l81.2,-80.217c0,0 -80.217,-108.608 -223.062,-108.608c-137.95,-0 -224.034,96.854 -224.034,193.708c0,127.196 113.492,181.975 214.246,217.217c81.217,28.354 125.229,48.908 125.229,106.621c0,55.779 -60.646,79.25 -119.346,79.25c-103.704,-0 -162.416,-102.721 -162.416,-102.721l-88.038,74.35c0,-0 79.234,139.896 250.454,139.896c129.13,-0 238.705,-66.513 238.705,-190.775c-0,-124.242 -87.071,-171.205 -191.742,-210.346" style="fill:#3b176b;fill-rule:nonzero;"/><path d="M7973.59,277.313l-37.279,61.234l-37.279,-61.234l-16.254,0l-0,109.454l16.254,0l0,-78.991l37.279,61.816l37.279,-61.816l0,78.991l16.259,0l-0,-109.454l-16.259,0Z" style="fill:#3b176b;fill-rule:nonzero;"/><path d="M7786.62,292.984l29.579,0l0,93.784l16.275,-0l0,-93.784l30.171,0l0,-15.671l-76.025,0l0,15.671Z" style="fill:#3b176b;fill-rule:nonzero;"/><path d="M658.817,912.238c-139.967,-0 -253.433,-113.467 -253.433,-253.429c-0,-139.967 113.466,-253.429 253.433,-253.429c139.967,-0 253.429,113.462 253.429,253.429c0,139.962 -113.462,253.429 -253.429,253.429m648.658,-432.367c0,-258.35 -211.37,-469.721 -469.716,-469.721l-357.884,0c-258.345,0 -469.716,211.371 -469.716,469.721l-0,357.875c-0,258.346 211.371,469.721 469.716,469.721l357.884,0c258.346,0 469.716,-211.375 469.716,-469.721l0,-357.875Z" style="fill:#00a998;fill-rule:nonzero;"/><path d="M1479.44,1173.71c-139.966,-0 -253.429,113.462 -253.429,253.429c0,139.966 113.463,253.429 253.429,253.429c139.967,-0 253.43,-113.463 253.43,-253.429c-0,-139.967 -113.463,-253.429 -253.43,-253.429" style="fill:#00a998;fill-rule:nonzero;"/></g><g id="Layer-3" serif:id="Layer 3"></g><g id="Layer-4" serif:id="Layer 4"></g></svg>